PathFileType	4	(X/Y/Z)	70_1_39_p0_0-323.trc
DataRate	CameraRate	NumFrames	NumMarkers	Units	OrigDataRate	OrigDataStartFrame	OrigNumFrames
47.0	47.0	5	27	m	47.0	243	324
Frame#	Time	RHip			RKnee			RAnkle			RBigToe			RSmallToe			RHeel			LHip			LKnee			LAnkle			LBigToe			LSmallToe			LHeel			Neck			Head			Nose			RShoulder			RElbow			RWrist			RThumb			RIndex			RPinky			LShoulder			LElbow			LWrist			LThumb			LIndex			LPinky			
		X1	Y1	Z1	X2	Y2	Z2	X3	Y3	Z3	X4	Y4	Z4	X5	Y5	Z5	X6	Y6	Z6	X7	Y7	Z7	X8	Y8	Z8	X9	Y9	Z9	X10	Y10	Z10	X11	Y11	Z11	X12	Y12	Z12	X13	Y13	Z13	X14	Y14	Z14	X15	Y15	Z15	X16	Y16	Z16	X17	Y17	Z17	X18	Y18	Z18	X19	Y19	Z19	X20	Y20	Z20	X21	Y21	Z21	X22	Y22	Z22	X23	Y23	Z23	X24	Y24	Z24	X25	Y25	Z25	X26	Y26	Z26	X27	Y27	Z27	
243	5.170212765957447	0.3190940248150562	0.5710236829135663	0.0452759303186118	0.3056306802563019	0.5828322717311069	0.45487351109304536	0.3629156671799809	0.7958400425525648	0.8883936919947408	0.3183038923082827	0.6332304591262125	0.99827180946545	0.38704007616000524	0.6320241001088649	0.9771227047989229	0.3590882773129216	0.9393460661743173	0.9776041262970406	0.12068361571150643	0.611674848077171	0.03297042804316121	0.13744263110884192	0.6668897118471798	0.463094209865015	0.17129965093073485	0.8228632710825642	0.8936581395794578	0.16391015983856802	0.643159174753465	0.9850086389297362	0.11575187378497676	0.7173703556477852	0.9760759799323498	0.2047008643009025	0.9000896886128148	0.9356934392829548	0.25856497110020293	0.4526875350689743	-0.530705967016524	0.19023171541630524	0.19111715903749435	-0.6881319087867395	0.21686083833889522	0.20766578299891317	-0.536466214762313	0.4046298086420374	0.43198092624920387	-0.48023836440469175	0.23389201145524205	0.2115738947282073	-0.3239832638583648	0.18941896751978268	0.15526876880557022	-0.5572025676660717	0.2159101995854347	0.17061925922021817	-0.6557735311204942	0.22962995753222756	0.08946046625668375	-0.6598858954936639	0.2158633434225791	0.005986768649453412	-0.6265546855904455	0.11993554479799509	0.5187893481996504	-0.5564103586340629	0.023436098943505825	0.23545434414678687	-0.4263628971929747	0.14019320745789568	0.13268641236703121	-0.5929321133907832	0.2645101977864162	0.09702738014670417	-0.6193428463089437	0.25626880534494345	0.07059132541957663	-0.654850273346504	0.2022290739782216	0.0038823890281593043	-0.6323489912488374
244	5.191489361702128	0.3112759031297155	0.5726160579751091	0.04934982533093734	0.30129431845007304	0.5818936860624285	0.4547890980639034	0.3653072499397591	0.797801379765597	0.8892294147716562	0.31518781111115335	0.6468046071349626	1.0040676387543839	0.3862922422911491	0.6298799129631693	0.9774690717774724	0.36801755519021784	0.9369963901561948	0.9744678022456672	0.1168242794761098	0.6267596324466381	0.03741143497233861	0.13367337731391818	0.6639249045308508	0.46242094173115444	0.17128611651381453	0.8231548137268645	0.8937583000781628	0.16260005638859332	0.6403711702352424	0.97998004483256	0.11559499984037318	0.7171261271892293	0.9760713295299835	0.20961685223907142	0.915688465220595	0.9360458494311725	0.25967978981165596	0.4554092995085622	-0.5231690260527138	0.20729284981274887	0.178951710166312	-0.6856151977721889	0.2290229191190903	0.20650503622475028	-0.5367454356545974	0.4048519348648836	0.4317638537423968	-0.47948843354113935	0.23426582845444227	0.21379628809653883	-0.3138490266556176	0.20010122932272598	0.15419749594274942	-0.5565501524522175	0.25221405965910615	0.15365736413296663	-0.6437720936323998	0.25156890843362434	0.06435051080310406	-0.6446597291428516	0.2327230633470499	0.01364440282529921	-0.6245464688807643	0.12231840485390491	0.520543471682984	-0.5523183215652709	0.023635236297650207	0.2348502059832485	-0.4260438949006765	0.1516358694050166	0.10999853864562928	-0.589407110357336	0.2702754284497286	0.09065189644070178	-0.6208643270584816	0.27094761524922883	0.06743604994124631	-0.6513730405318927	0.21184255794133097	0.00635211250736345	-0.6228246163092565
245	5.212765957446808	0.30074101244536794	0.5599232102697604	0.04486381274500757	0.2987058023671482	0.5973917275624339	0.4573501199560134	0.35576365314219893	0.7785757174197573	0.8788644952618183	0.3165730790204373	0.6502976822117751	1.0043567161223448	0.3854121400062278	0.6489201073574221	0.9832599955327411	0.3575133056508005	0.9367033099648405	0.9722742618411698	0.11564061359075677	0.6245657074489047	0.02509026451638136	0.12566862673958454	0.6685794739091689	0.4583313395800066	0.15951366241243586	0.8220602896198093	0.8891925066594748	0.15986768511247199	0.656471629144528	0.9857002150030183	0.11559200273241392	0.7185118189466204	0.9764615557078089	0.20378963985811496	0.9006189289252614	0.9313211495148084	0.2512456619965478	0.4600776243986962	-0.5178059875512016	0.22541292723415715	0.13484558562713714	-0.6617906211681547	0.23088063815802826	0.1745299668500716	-0.5222972218072867	0.4026421273781201	0.4467646658644645	-0.47682083879725673	0.2397092036604418	0.22556363822181602	-0.30448614792154527	0.23301129536188456	0.10654990717449364	-0.5078805478018537	0.26994441663706037	0.08858971181981617	-0.585826579591186	0.2684890158232444	0.008261812537824894	-0.6151917314508655	0.2681048607850877	-0.035034210142446474	-0.5838498307146239	0.12082461883272018	0.5153590186008925	-0.542993332064527	0.03434563934315724	0.21428944306835712	-0.41399566779922364	0.17283498348937712	0.058336336753126015	-0.5692795258464252	0.28951600485656376	0.07906254821423159	-0.6020754963616101	0.29020840807102594	-0.0007637075303206631	-0.6086304067269036	0.2536958631289973	-0.061812956268174526	-0.605147743916973
246	5.23404255319149	0.2949413046987153	0.5480248588229891	0.04810558352010544	0.2975177070879096	0.5957537407294461	0.45300518764115505	0.3623036654993274	0.7915038108535034	0.8788262100044555	0.3103706772338223	0.6453778326513397	1.0032789541760698	0.3845637815794709	0.6467764980264111	0.9833763507633536	0.3590553976943617	0.9388655217188605	0.9783818152104591	0.10730832014145557	0.6267446302793327	0.02894936287863754	0.12457509893337963	0.6668156012570315	0.4541564378331027	0.16045317892587424	0.8207679036297362	0.8844822326465824	0.1550150599640289	0.6428458341238642	0.9809766526669419	0.11534414570341024	0.7186555413701545	0.9765922299092933	0.20486335440299475	0.9023612836286912	0.9355157277515648	0.2502642081849427	0.44169492727245074	-0.5209725738013306	0.23509615413080742	0.11376508563787409	-0.648615636370437	0.23070891769095586	0.17392296941142205	-0.5254398707542787	0.40249538675774293	0.4458360546879587	-0.46878218260288956	0.24042987641519684	0.2278978408580249	-0.2941468663328248	0.2397414010243343	0.09878468375315871	-0.48845246235884066	0.2824115443274391	0.11495616142132334	-0.5798442605064611	0.2604414780698894	0.050975195106362614	-0.593197538665085	0.2647742163484559	-0.009095666113742375	-0.5533802140154847	0.11709806574678444	0.49264615481483676	-0.543879053800218	0.03483687592897775	0.21528612552472504	-0.40939926711258506	0.19589560027797415	0.036847016583674015	-0.5603628317884772	0.30431077378936083	0.03218700368007803	-0.581125711468036	0.30815229224560053	0.018406007839760177	-0.6019698517385151	0.26285491340125466	-0.05737610083928905	-0.5757240733483747
247	5.25531914893617	0.2926593696038114	0.5631795084479161	0.048946023029564883	0.297574597725571	0.5960395109274859	0.45284214217828683	0.35586758737817076	0.778459449902392	0.8790450007228687	0.31617284839094795	0.6502953878113352	1.0045930058699137	0.38459453243441205	0.6499912493024954	0.9881271785904867	0.35880354273971593	0.939901713058141	0.9743643411553076	0.10307303273795622	0.6402202186264482	0.02134684459182688	0.13009484361620555	0.6825145730475137	0.46089736569085177	0.15955864256480723	0.822512543674286	0.8892152914241531	0.155048006454384	0.6429792736792211	0.9809511497174568	0.11544431999140767	0.7188667635453052	0.9765764053168032	0.19948115664163002	0.8988298843846501	0.934476169906438	0.2520233607192998	0.44270830004035333	-0.5119791321636574	0.23784850019875872	0.1344258967149858	-0.6564345092383012	0.23729015116784563	0.18341047853650944	-0.5298927121176672	0.39775920171975593	0.44831865731427656	-0.4549226753535005	0.24130478708160505	0.23027580252266533	-0.2870880630854427	0.24443801080063962	0.09978821274032436	-0.48469636649469794	0.3024454495906343	0.1143252454425299	-0.5621382609342114	0.29128978668283534	0.009460433571603125	-0.5705659776515286	0.2877740603740724	-0.02268871661534633	-0.542995567369386	0.11234471939146644	0.4906045014451147	-0.5432664698369247	0.04260473643218206	0.22709636597707575	-0.4042944619903542	0.20053942401072186	0.047635761410160196	-0.5499512264779529	0.31403607017113194	0.04239729025764648	-0.5618631890450942	0.33795374691003816	0.03413004469726808	-0.5903586889292144	0.27750451378729857	-0.03659910052372515	-0.5551347141915963
